@startuml
[*] --> red
state "red" as red {
}
url of red is [[http://mbeddr.com/r:be2272c0-bc2d-4ac4-a164-b072c9e60516##__##8730648445433858447]]
red -up-> green : buttonPressed [[http://mbeddr.com/r:be2272c0-bc2d-4ac4-a164-b072c9e60516##__##8730648445433858450]]\n[getCurrentTime() >\ngreenEnterTime + 100]
state "green" as green {
}
green: /entry [[http://mbeddr.com/r:be2272c0-bc2d-4ac4-a164-b072c9e60516##__##8730648445433858472]]
url of green is [[http://mbeddr.com/r:be2272c0-bc2d-4ac4-a164-b072c9e60516##__##8730648445433858454]]
@enduml
