@startuml
package Components {
component "Nuller" as Nuller
url of Nuller is [[http://mbeddr.com/r:bd5ec23c-c294-47cc-a078-675c03abdb69##__##1731059994647781810####]]
component "Interpolator" as Interpolator
url of Interpolator is [[http://mbeddr.com/r:bd5ec23c-c294-47cc-a078-675c03abdb69##__##1731059994647866538####]]
component "In\nMemory\nStorage" as InMemoryStorage
url of InMemoryStorage is [[http://mbeddr.com/r:bd5ec23c-c294-47cc-a078-675c03abdb69##__##1731059994647814153####]]
component "Storage\nMock" as StorageMock
url of StorageMock is [[http://mbeddr.com/r:bd5ec23c-c294-47cc-a078-675c03abdb69##__##5160057464294671016####]]
component "Judge" as Judge
url of Judge is [[http://mbeddr.com/r:bd5ec23c-c294-47cc-a078-675c03abdb69##__##1731059994647919796####]]
component "Judge2" as Judge2
url of Judge2 is [[http://mbeddr.com/r:bd5ec23c-c294-47cc-a078-675c03abdb69##__##7451725615401930837####]]
interface "Trackpoint\nProcessor" as TrackpointProcessor
url of TrackpointProcessor is [[http://mbeddr.com/r:bd5ec23c-c294-47cc-a078-675c03abdb69##__##1731059994647588216####]]
interface "Trackpoint\nStore1" as TrackpointStore1
url of TrackpointStore1 is [[http://mbeddr.com/r:bd5ec23c-c294-47cc-a078-675c03abdb69##__##1731059994647814010####]]
interface "Trackpoint\nStore2" as TrackpointStore2
url of TrackpointStore2 is [[http://mbeddr.com/r:bd5ec23c-c294-47cc-a078-675c03abdb69##__##1731059994647814089####]]
interface "Flight\nJudger" as FlightJudger
url of FlightJudger is [[http://mbeddr.com/r:bd5ec23c-c294-47cc-a078-675c03abdb69##__##1731059994647919766####]]
}
Nuller --> TrackpointProcessor: processor [[http://mbeddr.com/r:bd5ec23c-c294-47cc-a078-675c03abdb69##__##1731059994647782992####]]
Interpolator --> TrackpointProcessor: processor [[http://mbeddr.com/r:bd5ec23c-c294-47cc-a078-675c03abdb69##__##1731059994647866539####]]
Interpolator ..> TrackpointStore1: store [[http://mbeddr.com/r:bd5ec23c-c294-47cc-a078-675c03abdb69##__##1731059994647866541####]]
InMemoryStorage --> TrackpointStore1: store [[http://mbeddr.com/r:bd5ec23c-c294-47cc-a078-675c03abdb69##__##1731059994647814156####]]
StorageMock --> TrackpointStore1: store [[http://mbeddr.com/r:bd5ec23c-c294-47cc-a078-675c03abdb69##__##5160057464294671017####]]
Judge --> FlightJudger: judger [[http://mbeddr.com/r:bd5ec23c-c294-47cc-a078-675c03abdb69##__##1731059994647919797####]]
Judge2 --> FlightJudger: judger [[http://mbeddr.com/r:bd5ec23c-c294-47cc-a078-675c03abdb69##__##7451725615401930838####]]
@enduml
