@startuml
[*] --> Red
state "Red" as Red {
}
url of Red is [[http://mbeddr.com/r:d183ee78-698a-4d70-a6c1-07e860784580##__##4755612053022236788]]
Red -up-> Green : buttonPressed [[http://mbeddr.com/r:d183ee78-698a-4d70-a6c1-07e860784580##__##4755612053022509147]]
state "Green" as Green {
}
url of Green is [[http://mbeddr.com/r:d183ee78-698a-4d70-a6c1-07e860784580##__##4755612053022509146]]
@enduml
